<svg xmlns="http://www.w3.org/2000/svg" viewBox="0 0 1200 600">
  <g fill="#74c78b">
    <!-- North America -->
    <path d="M80 170 L140 120 L230 100 L300 130 L330 180 L295 220 L240 245 L170 240 L120 210 Z"/>
    <!-- South America -->
    <path d="M280 285 L330 300 L360 350 L345 430 L315 500 L275 525 L250 480 L260 420 L240 350 Z"/>
    <!-- Europe -->
    <path d="M515 145 L560 130 L615 145 L635 175 L605 200 L555 200 L520 180 Z"/>
    <!-- Africa -->
    <path d="M545 215 L600 225 L645 275 L640 355 L600 430 L550 415 L525 360 L535 280 Z"/>
    <!-- Asia -->
    <path d="M640 145 L735 120 L850 130 L940 165 L980 220 L940 260 L860 275 L780 255 L710 245 L660 205 Z"/>
    <!-- India / SE Asia -->
    <path d="M735 260 L775 290 L760 335 L720 350 L700 320 Z"/>
    <!-- Australia -->
    <path d="M900 390 L970 380 L1035 410 L1010 465 L935 480 L885 445 Z"/>
    <!-- Greenland -->
    <path d="M300 60 L350 35 L395 55 L380 95 L335 105 Z"/>
    <!-- Japan -->
    <path d="M980 220 L1000 240 L990 270 L970 255 Z"/>
  </g>
</svg>
